<?xml version="1.0" encoding="UTF-8"?>
<svg version="1.1" viewBox="0 0 2000 2000" width="499" height="500" xmlns="http://www.w3.org/2000/svg">
<path transform="translate(837,143)" d="m0 0h2l-1 7-8 28-3 17v33l3 19 5 17 8 20 8 14 8 10 12 12 11 9 6 5h7l23-12 19-8 15-5 32-8 30-5 10-1h47l26 3 26 5 26 7 24 9 17 8 16 10 3 2 10-1 14-5 19-10 14-9 10-8 8-7 9-11 9-14 8-16 9-27 5-25 1-8v-43l-1-10h3l16 16 12 16 9 15 11 21 8 21 6 23 3 19 1 13v25l-3 25-5 21-6 16-8 17-10 16-10 12-7 8-13 13-16 12h-2l1 4 8 14 14 35 7 24 5 27 5 31 8-1 27-10 41-14 29-8 37-9 28-6 18-2 1 2-9 17-13 22-10 18-18 35-11 24-14 36-12 35-14 45-6 16-8 16-9 14-8 10-5 6-8 7-13 10-16 9-16 6-11 3-7 1h-38l-15-3-19-6-5 1-7 8-10 13-12 14-9 8-5 5-10 9-14 10-27 18-2 1 1 4 5 4 21 12 19 12 17 12 10 8 10 9 8 7 7 6v2l4 2 24 24 7 8 8 8 7 8 36 36 7 8 10 10 7 8 9 10 9 11 8 8 9 11 13 15 12 15 12 17 6 10 7 19 1 5v17l-4 15-5 12-6 11-11 15-12 14-12 13-14 15-31 31-7 9 20 10 16 9v2l-29 14-7 4-1 3 3 3 15 5 26 6 10 3v3l-17 12-14 10-18 10-29 15-8 5h-2l2 4 9 4 33 7 8 1h40l23-4 23-7 17-8 16-10 13-11 7-6 14-16 10-14 7-12 11-26 4-19 1-14v-29l-3-26-4-15-8-24-9-22-15-31-12-22-12-21-9-15-15-29-9-19-10-26-7-22-5-25-2-22v-12l2-19 4-23 6-20 6-15 13-25 8-12 10-13 12-13 5-6 8-7 8-8 17-13 14-10 24-15 14-9 1-3-6-7-10-8-16-13-13-10-5-4-1-3 2-1 49-3 26-1h79l34 1 35 3-1 4-14 15-10 9-12 12-7 6-7 8-23 23-7 8-7 7-7 8-7 7-1 2h-2l-2 4-14 15-9 11-10 11-1 2h-2v2h-2l-2-9-5-46-3-16v-3l-12 6-16 10-17 12-10 8-16 13-17 17-10 13-10 15-7 12-8 19-6 21-2 10-1 11v26l3 21 5 20 9 25 13 28 10 21 8 14 6 12 13 23 17 33 11 25 10 28 7 25 4 20 3 29v24l-3 23-5 20-7 21-12 25-10 15-8 11-9 10-14 13-17 12-18 10-20 9-19 6-25 5-15 2h-38l-19-3-16-4-24-8-16-7-12-7-5 1-8 16-10 18-10 15-11 14-9 9-17 11-9 6-2 8-2 25-3 104-1 80-1 52-2 1-102 1h-132l-1-4 3-19 5-15 8-15 7-9 13-13 15-10 16-8 8-5v-92l-1-5h-13l-30 3-15 1h-30l-22-3-11-2h-6l-4 4-2 7-1 36v146l-1 2-232 1-1-4 7-25 7-16 10-14 10-9 10-7 12-7 25-10 1-1-1-14-3-22-3-38-5-106-2-8-13-15-11-12-12-16-10-16-8-15-10-25-7-25-6-30-3-29v-40l2-25 4-27 7-31 9-31 10-28 15-33 11-24 2-9-15 3-29 9-30 8-23 5-23 3h-20l-18-3-13-5-12-7-12-11-14-18-24-38-28-49-16-29-13-23-7-11-4-2-29-2-27-3-23-5-17-5-21-9-11-6-17-12-11-9-12-11-6-5-3-2-7 1-18-4-36-9-24-9-18-8-19-10-12-9-10-9-14-14-7-10-6-12-3-11 1-14 3-18-2-4-11-9-9-9-8-16-2-7v-19l5-16 6-8 9-9 10-5 6-1h10l22 3 6 1 2-7 4-6 9-9 13-8 14-4h25l17 4 34 11 38 9 38 6 28 3 17 1h66l35-3 45-7 41-8 15-1 14 2 12 5 9 6 10 9 5 8 3 5 21-2h17l11 4 6 4 7 7 7 12 4 14v14l-3 11-5 10-11 12-8 8-10 8-1 5 1 3v14l-2 10-7 16-10 13-11 12-16 11-14 8-26 11-27 9-18 4-1 2 3 1 7 9 11 14 14 19 12 15 10 14 14 19 13 17 7 7 7 1 14-2 20-6 25-9 28-11 21-9 24-11 15-7 29-13 28-12 32-14 21-8 6-4h2l-5-6-19-11-21-14-16-12-13-12-9-9-22-28-10-15-9-16-7-15-6-21-3-15-2-32-6-31-5-20-15-40-12-36-14-43-8-21-9-22-18-39-3-6 4 1 19 10 29 15 22 12 17 10 13 9 4-23 6-25 7-24 8-19 8-16 10-19 8-14-3-5-8-9-10-15-11-21-6-16-5-23-2-23v-10l3-32 6-24 11-27 9-17 8-12 12-16 12-13 11-9 12-8zm398 1061-1 2 1 13 4 29 4 39 3 44 1 2 6-1 9-10 11-14 9-10 11-14 7-11-2-6-11-12-7-8-9-10-11-12-19-19-3-2z" fill="#E5282B"/>
<path transform="translate(837,143)" d="m0 0h2l-1 7-8 28-3 17v33l3 19 5 17 8 20 8 14 8 10 12 12 11 9 6 5h7l23-12 19-8 15-5 32-8 30-5 10-1h47l26 3 26 5 26 7 24 9 17 8 16 10 3 2 10-1 14-5 19-10 14-9 10-8 8-7 9-11 9-14 8-16 9-27 5-25 1-8v-43l-1-10h3l16 16 12 16 9 15 11 21 8 21 6 23 3 19 1 13v25l-3 25-5 21-6 16-8 17-10 16-10 12-7 8-13 13-16 12h-2l1 4 8 14 14 35 7 24 5 27 5 31 8-1 27-10 41-14 29-8 37-9 28-6 18-2 1 2-9 17-13 22-10 18-18 35-11 24-14 36-12 35-14 45-6 16-8 16-9 14-8 10-5 6-8 7-13 10-16 9-16 6-11 3-7 1h-38l-15-3-19-6-5 1-7 8-10 13-12 14-9 8-5 5-10 9-14 10-27 18-2 1 1 4 5 4 21 12 9 6-3 1-1 4-3 3-9 4-6 4h-2v2l-11 7-6 5h-3v2l-8 4h-2v2l-7 3-8 5-8 3-13 6-11 4-8 3-13 4h-4l-1 2v-2l-12 4-13 2-21 1h-9l-3 1-1-1-23-1-17-2-7-2-12-2-5-3-14-5-20-9-17-8-9-6-3-1-3-3-14-10-4-4-8-4v-3h-2l-1-3 16-8 3-1-5-6-19-11-21-14-16-12-13-12-9-9-22-28-10-15-9-16-7-15-6-21-3-15-2-32-6-31-5-20-15-40-12-36-14-43-8-21-9-22-18-39-3-6 4 1 19 10 29 15 22 12 17 10 13 9 4-23 6-25 7-24 8-19 8-16 10-19 8-14-3-5-8-9-10-15-11-21-6-16-5-23-2-23v-10l3-32 6-24 11-27 9-17 8-12 12-16 12-13 11-9 12-8z" fill="#E5282B"/>
<path transform="translate(1614,772)" d="m0 0h79l34 1 35 3-1 4-14 15-10 9-12 12-7 6-7 8-23 23-7 8-7 7-7 8-7 7-1 2h-2l-2 4-14 15-9 11-10 11-1 2h-2v2h-2l-2-9-5-46-3-16v-3l-12 6-16 10-17 12-10 8-16 13-17 17-10 13-10 15-7 12-8 19-6 21-2 10-1 11v26l3 21 5 20 9 25 13 28 10 21 8 14 6 12 13 23 17 33 11 25 10 28 7 25 4 20 3 29v24l-3 23-5 20-7 21-12 25-10 15-8 11-9 10-14 13-17 12-18 10-20 9-19 6-25 5-15 2h-38l-19-3-16-4-24-8-16-7-12-7-5 1-8 16-10 18-10 15-11 14-9 9-17 11-9 6-2 8-2 25-3 104-1 80-1 52-2 1-102 1h-132l-1-4 3-19 5-15 8-15 7-9 13-13 15-10 16-8 8-5v-92l-1-5h-13l-30 3-15 1h-30l-22-3-11-2h-6l-4 4-2 7-1 36v146l-1 2-232 1-1-4 7-25 7-16 10-14 10-9 10-7 12-7 25-10 1-1-1-14-3-22-3-38-5-106-2-8-13-15-11-12-12-16-10-16-8-15-10-25-7-25-3-14v-6l2 3 1 3 4 2 2 5 4 2 9 11 2 4 4 2 8 8v2l5 2 15 15 2 1v2l5 2v2h4v2l4 2 7 5 3 1v2l5 2 2 2 5 2 8 4v2l4 1 15 6 12 5 6 2 19 6 16 4 24 4h41l19-1 16-2 11-1 11-3 16-4 24-8 17-7 17-9 14-9 7-4 4-2v-2l5-2 4-5 5-3 15-11 5-6 5-4h2l2-4h2l2-4h2l2-4 6-8 7-10 8-16 10-22 4-12 8-26 9-35 5-25 6-37 3-30 1-3 3-43 1-15 1-27 1-35v-13l1-2 4 1v2h2l7 8 31 31 5 6 4 4 3 23 5 40 4 49 1 17 1 2 4 2-11 12-3 4h-2l-2 6-5 5-8 9-4 4-1 3-3 3-1 2h-2l-1 4-8 16-3 10v20l4 16 5 14 7 14 9 11 5 5 6 5 5 5 4 3v2l7 2 8 6 14 6 9 2h10l9 1h17v2l5 2 7 3 33 7 8 1h40l23-4 23-7 17-8 16-10 13-11 7-6 14-16 10-14 7-12 11-26 4-19 1-14v-29l-3-26-4-15-8-24-9-22-15-31-12-22-12-21-9-15-15-29-9-19-10-26-7-22-5-25-2-22v-12l2-19 4-23 6-20 6-15 13-25 8-12 10-13 12-13 5-6 8-7 8-8 17-13 14-10 24-15 14-9 1-3-6-7-10-8-16-13-13-10-5-4-1-3 2-1 49-3z" fill="#A91322"/>
<path transform="translate(152,693)" d="m0 0h25l17 4 34 11 38 9 38 6 28 3 17 1h66l35-3 45-7 41-8 15-1 14 2 12 5 9 6 10 9 5 8 3 5 21-2h17l11 4 6 4 7 7 7 12 4 14v14l-3 11-5 10-11 12-8 8-10 8-1 5 1 3v14l-2 10-7 16-10 13-11 12-16 11-14 8-26 11-27 9-18 4-2 2-46-4-54-3-12-1-45-3-39-4-13-2-24-2-24-1-8 2-1 7 1 12-4-2-7 1-18-4-36-9-24-9-18-8-19-10-12-9-10-9-14-14-7-10-6-12-3-11 1-14 3-18-2-4-11-9-9-9-8-16-2-7v-19l5-16 6-8 9-9 10-5 6-1h10l22 3 6 1 2-7 4-6 9-9 13-8z" fill="#FCBE75"/>
<path transform="translate(152,693)" d="m0 0h25l17 4 34 11 38 9 38 6 28 3 17 1h66l35-3 45-7 41-8 15-1 14 2 12 5 9 6 10 9 5 8 3 5 21-2h17l11 4 6 4 7 7 7 12 4 14v14l-3 11-5 10-11 12-8 8-9 7-4-1-9-17-9-10-8-5-7-3-15-1-5-1h-16l-19 4-2 1h-7l-10-3-1-3-9-2v-2l-5-1-4-1v-3l-9-1-2 1-3-3 1 5 2 6 4 1 8 4 5 4 5 5-4 2-7 2-29 9-22 5-14 1-1-4 3-1v-2l7-5 1-2 3-1 1-3h3l1-4 10-8 3-3 15-6h3l-1-4-2-1-13 1-6 2-8 5-7 8h-2l-2 4-4 5-14 8-7 3h-11l-12-6-10-8-5-5-10-7-9-4-4-1h-9l-10 5-8 8-13 9-10 4h-15l-10-5-12-11-11-13-4-5-7-5-12-3-11 3-16 8-6 2h-15l-8-4-8-8-5-3h-7l-2 1-1 3v8l4 9v3l-7-1-17-5-19-3h-14l-16 4-12 6-10 9-2 3h-2l-2 5-4 1-14-12-7-7-8-16-2-7v-19l5-16 6-8 9-9 10-5 6-1h10l22 3 6 1 2-7 4-6 9-9 13-8z" fill="#C81920"/>
<path transform="translate(1614,772)" d="m0 0h79l34 1 35 3-1 4-14 15-10 9-12 12-7 6-7 8-23 23-7 8-7 7-7 8-7 7-1 2h-2l-2 4-14 15-9 11-10 11-1 2h-2v2h-2l-2-9-5-46-3-16v-3l-12 6-16 10-17 12-10 8-16 13-17 17-10 13-10 15-7 12-8 19-6 21-2 10-1 11v26l3 21 5 20 9 25 13 28 10 21 8 14 6 12 13 23 17 33 11 25 10 28 7 25 4 20 3 29v24l-3 23-5 20-7 21-12 25-10 15-8 11-9 10-14 13-17 12-18 10-20 9-19 6-25 5-15 2h-38l-19-3-16-4-24-8-16-7-5-3-3-10 3-4-2-5-18-8-10-5-5-2-7-5-5-3-8-5v-2l-4-1-5-6-4-3v-2l-4-2-7-8-9-15-6-16-4-15-1-7v-15l3-12 8-16 6-9 13-16 9-10 9-11 5-6 4-1-6 8-8 9h-2l-2 6-5 5-8 9-4 4-1 3-3 3-1 2h-2l-1 4-8 16-3 10v20l4 16 5 14 7 14 9 11 5 5 6 5 5 5 4 3v2l7 2 8 6 14 6 9 2h10l9 1h17v2l5 2 7 3 33 7 8 1h40l23-4 23-7 17-8 16-10 13-11 7-6 14-16 10-14 7-12 11-26 4-19 1-14v-29l-3-26-4-15-8-24-9-22-15-31-12-22-12-21-9-15-15-29-9-19-10-26-7-22-5-25-2-22v-12l2-19 4-23 6-20 6-15 13-25 8-12 10-13 12-13 5-6 8-7 8-8 17-13 14-10 24-15 14-9 1-3-6-7-10-8-16-13-13-10-5-4-1-3 2-1 49-3z" fill="#C71A20"/>
<path transform="translate(71,841)" d="m0 0 13 1 19 6 21 8 15 6 11 4 24 9 25 8 34 8 44 8 33 4 43 2 48-1 45-5 29-5 44-11 9-3 20-7 15-6 16-6 9-4 14-5 16-4h16l3 1 3 4v14l-2 10-7 16-10 13-11 12-16 11-14 8-26 11-27 9-18 4-2 2-46-4-54-3-12-1-45-3-39-4-13-2-24-2-24-1-8 2-1 7 1 12-4-2-7 1-18-4-36-9-24-9-18-8-19-10-12-9-10-9-14-14-7-10-6-12-3-11 1-14z" fill="#F79C47"/>
<path transform="translate(1324,145)" d="m0 0h3l16 16 12 16 9 15 11 21 8 21 6 23 3 19 1 13v25l-3 25-5 21-6 16-8 17-10 16-10 12-7 8-13 13-16 12h-2l-1 3-15 3h-18l-17-4-16-8-11-8-8-7-7-8-7-10-7-12-5-15-2-14v-16l4-14 4-5h8l18-6 19-10 14-9 10-8 8-7 9-11 9-14 8-16 9-27 5-25 1-8v-43z" fill="#0E1F3B"/>
<path transform="translate(1063,1728)" d="m0 0 16 1 6 2 7 2 12 4 2 2 7 1v2h6v2h6l11 4 5-1h2v2l10-2 16-1 2 1 3-1v2h2l4 8v3l2 5 2 2 2 17 1 5 1 11 1 6-3 7 1 13-2 12v4l1 1v14l-1 6 2 1h-2l1 14-1 3 3 1-1 2 1 3v8l2 1-3 5 10 2 2 7-2 1-102 1h-132l-1-4 3-19 5-15 8-15 7-9 13-13 15-10 16-8 8-5 1-76 4-4h9l6 1v-4z" fill="#E5282B"/>
<path transform="translate(749,1714)" d="m0 0 4 1 1 1v8h2l4 7v3h6v-3l1-3 2-2-3-3h9v2l3-1v2l5 2 3 1v2h5l5 3 5 2 8 1 7 3 4 1v2h6l2 2 12 4 4 3 9 2 10 4 3 3 6 5 2 7 1 3 3 1 2 9 2 1v6l2 5 1 13-1 4-3 2-1-1v7l1 5-1 4 2 4v4l-2 1 1 5v11l1 5-1 4h2l1 10-1 2h2v9l-6 5h-4v2l-4 1v2l-9 1-1 1-10 1h-13l-4-1-5 1h-17l-8 1h-22l-10-1-1 2h-4l-13 1-9 1-1 1-10 1-3 2 124 1v1l-186 1-1-4 7-25 7-16 10-14 10-9 10-7 12-7 25-10 1-1-1-14-3-22-1-18 1-1v-40l2-5z" fill="#E5282B"/>
<path transform="translate(152,693)" d="m0 0h25l17 4 34 11 38 9 38 6 28 3 17 1h66l35-3 45-7 41-8 15-1 14 2 12 5 9 6 10 9 5 8 4 7-24 7-26 8-27 7-37 7-28 4-29 3-27 1h-57l-24-1-38-4-47-8-39-9-26-8-40-14-30-10 4-1 2-7 4-6 9-9 13-8z" fill="#FDB663"/>
<path transform="translate(837,143)" d="m0 0h2l-1 7-8 28-3 17v33l3 19 5 17 8 20 8 14 8 10 12 12 11 9 6 5v2l-11 7-16 11-10 8-10 9-8 7-10 10-9 11-4 5h-2l-2 4-10 13-3 2-7-7-11-16-9-16-8-18-5-18-3-19-1-25 3-32 6-24 11-27 9-17 8-12 12-16 12-13 11-9 12-8z" fill="#0E1F3B"/>
<path transform="translate(1106,738)" d="m0 0h2l-1 9-9 30-5 18-8 18-3 1v-2h-2l-6-8-11-14-3-4-4 1-9 10-8 14-10 21-9 14-5 3-6-1-7-10-6-13-4-1-2 4-14 26-9 11-7 6-8 3h-12l-7-6-8-16-5-12v-2l-3 1-11 21-8 9-6 3h-8l-12-6-7-7-7-11-6-15-3-9-3 4-7 13-4 5-4-1-5-9-3-8-2-5-4-21-4 4-5 8-4-1-3-4-3-14-1-8v-21l7 1 18 8 16 8 7 3 60-1 48-2 36-4 22-4 31-8 20-7 21-9 20-11z" fill="#FDEFD9"/>
<path transform="translate(1614,772)" d="m0 0h79l34 1 35 3-1 4-14 15-10 9-12 12-7 6-7 8-23 23-7 8-7 7-7 8-7 7-1 2h-2l-2 4-14 15-9 11-10 11-1 2h-2v2h-2l-2-9-5-46-3-16v-3l-12 6-16 10-2 1h-3-2l1-6 2-4 1-6 1-2-9 2h-6l-3 5-7 2-4 3h-2v2l-6-1 1 5-5 2-4 2-1 4-4 4-5 3-5 7h-2v2l-5-1-2-1v-6l1-2h2l3-3h2l1-4 8-9h2v-2l5 1 1-2 6-3 4-8h4v-2h4v-2h2v-2h2v-2l5-4 7-2v-2l4-4v-2l15-9 2-4-6-7-10-8-16-13-13-10-5-4-1-3 2-1 49-3z" fill="#E5282B"/>
<path transform="translate(1086,530)" d="m0 0 8 1 14 10 14 12 11 12 10 15 5 14v21l-3 10-8 16-5 6h-2l-2 4-11 9-21 11-14 4h-25l-14-3-13-5-12-7-9-8-7-10-6-13-3-10v-15l4-13 6-12 9-10 9-8 18-11 15-8 28-11z" fill="#FEF6DD"/>
<path transform="translate(1155,953)" d="m0 0 8 1 9 6 16 9 9 6-3 1-1 4-3 3-9 4-6 4h-2v2l-11 7-6 5h-3v2l-8 4h-2v2l-7 3-8 5-8 3-13 6-11 4-8 3-13 4h-4l-1 2v-2l-12 4-13 2-21 1h-9l-3 1-1-1-23-1-17-2-7-2-12-2-5-3-14-5-20-9-17-8-9-6-3-1-3-3-14-10-4-4-8-4v-3h-2l-1-3 20-10 7 1 12 5 13 4 5 2 10 2 17 4 24 3 18 1h29l25-2 18-3 13-2 6-2 7-1 9-3 18-5 5-2 7-2 24-10 15-8z" fill="#A91322"/>
<path transform="translate(1454,602)" d="m0 0 7 1-3 6-7 10-6 8-1 3h-2l-1 4-4 7-3 1-1 5-6 9-2 4h-2l-2 4-3 3-2 5-8 11-6 9-1 3h-2l-2 6-3 5-3 11-3 27-3 16-4 12-4 9-5 8h-2l1 3-6 6h-2v2h-3l-2 4-10 6-7 1v2l-12 1-16-3-12-7-6-9-1-8 4-3 10-4h2l1-2 9-3 5-3 4-5 3-1v-10l-4-6-5-4-8-2h-14l-1 1h-8l-1-1v-13l4-17 6-16 9-14 12-12 3-1v-2l5-3h2l2-4 11-8 14-8 14-9 22-10 3-2h4l1-2 9-4 14-6 16-6 10-3z" fill="#A91321"/>
<path transform="translate(766,510)" d="m0 0 9 2 18 8 8 4 11 4 20 18 2 1v2l3 1 7 10 8 16 3 14v13l-3 14-5 13-7 12-9 10-10 6-10 4-11 1-12-3-12-7-13-12-7-9-7-12-4-11-2-14v-8l3-14 8-19 6-12 2-2 1-5-2-8 1-12 2-4z" fill="#FDF8E8"/>
<path transform="translate(818,660)" d="m0 0h4l-1 5 2 7 4 6-1 7-3 9h-2l1 3-3 6-2 3-1 8 5 15 2 2 2 5 1 4 3 1v3l3 1v2l3 1v2l4 2 3 2h5l5-2v-2l15-8 8-4 12-4 11-5 8-3 13-3 6-2 6-1 7-2 9-1 4 4 1 9 4 8 2 3v7l-4 7-3 1v2l-4 2-1 2h-3v2l-6 4-3 1v2l-8 1v2l-19 4h-2v2l-4 2v2l-2 1h-47v2h-7l-12-5-2-6v-5l-4-1-5-5v-2l-5-1-4-2-3-4v-2l-8-2v-2l-6-1-3-3-2-1-1-3-5-3v-2h-3l-2-3-3-1-6-11-4-8-3-9-1-4 3-10 4-11h2l1-4 3-4 5-2 6-2v4l4-2h3l1-5-3-2h16z" fill="#C71920"/>
<path transform="translate(171,779)" d="m0 0h7l8 6 8 7 5 2h15l10-4 15-7 10-2 12 4 7 6 9 11 9 10 10 8 7 3h15l12-5 9-7 5-2 3-3 4 1v8l-5 5h-2l-2 4v1l11-7 6-2h10l8 3 14 9 11 8 2 1v2l-2 1-34 2h-17l-31-2v-3l12-5 2-2-15 7-3 1-1 2 3 1-22-1-13-3-4-1v-2l-22-3-33-9-6-2-9-1-9-2-20-6-10-4v-2l-5-1 3-1 4 1-5-12v-8l2-4z" fill="#FEB663"/>
<path transform="translate(1484,907)" d="m0 0 2 4 9-3 3 4h-4v3l-2 1-2 12-1 4-3 1-1 3h-2l-1 7-3-1-2 10-3 1-2 9-2 4v8l-2 9-6-1v3l-6 5-3 5-4 10 1 1-1 12-1 7v10l-1 7 1 11v8l4 24 3 5 3 10 5 11 4 8 2 1v2h2l1 4 3 6 3 9 1 1 1 7 2 2 1 8h2l3 11 3 6v4h2l4 7 2 1v3h2l5 11v2h2l3 4v3l3 1 2 7 2 1 6 12 6 8 3 12 2 3 1 9 2 1v5l2 1v6l3 4 1 4 4 4v3h2l3 7v4h2l3 9 2 9 2 6v8l2 8v14h-3v3h-3l-2 4-3-26-4-15-8-24-9-22-15-31-12-22-12-21-9-15-15-29-9-19-10-26-7-22-5-25-2-22v-12l2-19 4-23 6-20 6-15 13-25 8-12z" fill="#E5292B"/>
<path transform="translate(1315,462)" d="m0 0 4 4 10 23 9 24 6 23 7 40 2 13 6 2v2l-5 2h-4v2l-5 2h-3v2l-8 1v3l-7 2-9 6-7 3-12 7-4 3h-2l-1 3h-3l-2 4-6 5h-3l-1 4h-5l-1 3-2-3 3-9 9-20 7-18 7-21 4-11 5-17 6-20 4-18v-8l1-8-1-5v-9l-1-4z" fill="#AA1322"/>
<path transform="translate(747,1699)" d="m0 0 5 2 3 3 8 3 5 2v2l6 2 8 6 4 1 4 4 7 3 15 5 7 2v2l8 1 9 3 24 10 5 3 5 5 5 4 3 5 1 4 4 2 4 9 2 3v3h2l4 13 3 11 3 18h1v78l-1 2h-46l-126-1 5-4 10-1 1-1 20-2 5-1h2 32l9-1h18l5-1 2 1h15l8-1 7-2 3 1v-2l4-1v-2l5-2 4-3 1-9h-2l-1-10 1-2h-2l1-8-2-1v-13l1-2-2-1 3-1-3-8 1-7-1-2v-8l3 1 2-2v-10l-1-8-2-3v-6l-3-5-1-5-5-5v-6l-3-1-7-7-9-3-9-2-6-4-10-3-2-2-6-1v-2l-8-1-6-3h-6v-2l-5-1-9-3v-2l-4-1-5-3h-2v-2l-4 1h-2l1 4h-3l1 6-6 1-2-1-3-6-1-4h-2l-1-8-3-1-1 4-2 4v40l-2 1-1-5-2-34v-13l2-10z" fill="#C71A21"/>
<path transform="translate(1065,568)" d="m0 0h13l11 4 10 9 6 8 4 10 1 5v10l-3 11-6 11-9 9-10 5-12 2-10-2-10-5-6-5-7-11-3-9-1-5v-13l4-13 6-9 7-6 10-5z" fill="#0E1F3B"/>
<path transform="translate(801,557)" d="m0 0h15l12 6 7 6 7 11 3 7 1 13-2 10-6 12-9 10-8 5-6 2h-12l-10-4-10-9-7-11-3-10v-15l4-12 6-10 7-6 8-4z" fill="#101F3A"/>
<path transform="translate(809,1399)" d="m0 0 10 2 10 6 10 9 2 2v3h2l4 11 1 7-2 13-3 8h-2l-2 4-8 8-7 4-6 2-10 1-12-2-1-2-8-4-6-8-6-12-2-7v-16l6-12 4-5 9-7 5-3z" fill="#A91321"/>
<path transform="translate(943,721)" d="m0 0 4 1 4 10 3 5 2 7-2 5-4 5-14 9-5 3-7 4-7 1-5 3-5 2-8 2-6 3v1l-5 1v1l-16 1h-20v2h-7l-3-1-1-3 2-3h2l-3-14 1-5 8-7 18-9h2v-2l9-2v-2l17-7 13-4 9-3 11-1 6-2z" fill="#A91322"/>
<path transform="translate(1042,1719)" d="m0 0h7l3 1 19 1 18 4 10 2 5 3 5 1 7 3 26 7h12l5-2 14-1h12v2l3-1 4 2-1 5 5 2 3 13 1 42v54l-1 51h-1l-1-5-10-2v-3l2-3-1-1-2-12 1-1-2-1v-8l-1-6 1-4v-20l-2-5h2v-9l1-6-1-11h2l1-7-1-5v-6l-2-10-2-17-3-3-2-7v-2l-2-6-3-1-3 1-5-1-15 1-4 1h-3v-2l-8 2-10-4-12-3v-2h-7l-2-2-12-4-7-2h-2v-2l-20-1-6 1v4h-15l-1 2-1 17h-1l-1-22h1l1-10z" fill="#C71920"/>
<path transform="translate(1106,738)" d="m0 0h2l-1 9-9 30-5 18-8 18-3 1v-2h-2l-6-8-11-14-3-4-4 1-6 6-3 1-9 11-3 5-3 1-1-5 1-9 2-11-4-1-8 2-11 1h-22l-3-1 1-4 6-3 7-2 45-12 25-9 17-8z" fill="#FEF5DB"/>
<path transform="translate(837,143)" d="m0 0h2l-1 7-8 28-3 17v33l3 19 5 17 8 20 8 14 8 10 12 12 11 9 6 5v2l-11 7-16 11-10 8-5 2 1-4 4-7 5-4 3-4h2l2-4 3-9-4-10-5-9-7-7v-2l-4-2-5-5-7-10-4-9-4-15-1-12v-10l-2-3-3-13v-9l-1-9-1-7-4-7-6-4-4-2h-3l-12 12h-2l-1 4-4 9-3 3-5 6-3 8-2 3v6l-2 5-2 7v5l-2 5-1 7h-2v10l-5 21-3 3-1-5 1-24 6-24 11-27 9-17 8-12 12-16 12-13 11-9 12-8z" fill="#111628"/>
<path transform="translate(1324,145)" d="m0 0h3l16 16 12 16 9 15 11 21 8 21 6 23 3 19 1 13v25l-3 25-5 21-6 16-8 17-10 16-10 12-7 8-8 8h-5l2-4 2-1 2-5 3-5 4-3h2l3-9 8-14 3-6h2l2-5 4-5 5-13 5-22 1-4 5-25 1-8v-20l-5-25-3-9-1-11-3-15-2-7-5-13-5-11-5-3-1-2h-8l-4 2-7 1-6 7h-4l-1-47z" fill="#111627"/>
<path transform="translate(1138,721)" d="m0 0h11l9 5 8 8 4 8 1 5v7l-4 10-8 10-4 3h-4v2l-12 2-13-4-10-7-4-9-3-8-2-5v-4h2l1-7 8-6h2v-2l15-7z" fill="#A91321"/>
<path transform="translate(766,510)" d="m0 0 9 2 18 8 8 4 11 4 20 18 2 1v2l3 1 7 10 8 16 3 14v13l-3 14-5 13-7 12-9 10-10 6-10 4-11 1-12-3-12-7-13-12-7-9-7-12-4-11-2-14v-8l3-14 8-19 6-12 2-2 1-5-2-8 1-12 2-4zm20 18-11 8v2l-4 2-1 3h-2l-8 12-4 9-2 4v5h-2l-3 10v12l5 12 4 10 6 8 5 4 5 12h2l2 5 8 6 14 4h12l11-4 7-5v-2l3-1 7-9 7-14 4-12 1-16-1-10-8-16-6-9h-3l-2-4-6-4-4-4-6-3-3-1v-2l-6-5h-2v-2l-7-4-5-1z" fill="#FDEED6"/>
<path transform="translate(152,693)" d="m0 0h25l17 4 34 11 38 9 38 6 28 3 17 1h66l35-3 45-7 41-8 15-1 14 2 12 5 9 6 10 9 5 8 2 5-3 2-5 1h-9v-4l2-6-5-7-13-9v-2l-7-2-12-1h-12l-15 1-5 2-12 2-9 3-10 2-8 1-16 4h-6l-9 2h-14l-51-2h-18l-15 1-24 1h-16l-10-2-19-2v-2l-20-2-16-3-16-4-12-5h-3v-2l-9-2-13-6-8-3-11-1-25 1-14 3-7 6h-3v2l-5 3h-3l8-8 13-8z" fill="#FDC079"/>
<path transform="translate(1065,568)" d="m0 0h13l11 4 10 9 6 8 4 10 1 5v10l-3 11-6 11-9 9-10 5-12 2-10-2-10-5-6-5-7-11-3-9-1-5v-13l4-13 6-9 7-6 10-5zm13 14-16 6-8 2v2h-2l-6 8-3 10v3l-2 1 3 11 3 5h2l2 5 9 6 5 1h10l10-4v-2l3-1 2-4 3-3 6-13v-14l-4-10-9-8z" fill="#121426"/>
<path transform="translate(486,792)" d="m0 0 9 1v5l-8 3-11 5-10 9h-2l-1 4h-3l-1 4h-3l-1 3-5 4h-2v2l-2 1 1 5h-28l-12 3-26 2h-35l-28-2-3-1 1-3 16-7 4-1-4 4-12 5v1l31 2h17l36-2v-2l-5-2-15-11-11-6-4-1h-10l-9 4-9 6-2-1 5-6 6-5v-8l-4 1-3 3-2-1 8-8 10-5h9l11 4 11 7 5 4 4 5 14 9 5 2h11l16-8 5-3 6-8h2l2-4 7-7 6-3 9-2z" fill="#FDB562"/>
<path transform="translate(568,805)" d="m0 0h16l5 1 15 1 14 7 9 9 6 10 5 10 2 2-1 5-1 2-1-3h-21l-11 3-10 4-7 2-13 6-17 6-15 6-20 7-40 10-24 5-23 3-36 4-48 1-42-2-39-5-28-5-36-8-27-8-22-8-16-6-7-3-10-3-11-5-16-6-14-4-13-1-5 2 1-4 2-1h13l12 3 15 5 8 3 11 5 34 13 19 7 28 8 22 5 9 2 14 2 12 3 19 2 10 2 19 1 9 1 25 1h38l29-2 33-5 17-3 23-5 14-3h5l1-2 22-6 25-10 16-6 9-4 14-5 10-4 14-3 13-1 1-4h-2l-3-7-2-1v-5l-3-1-5-6v-2l-5-1-5-3-19-4-17-1-12 2-12 1 2-2z" fill="#FDB563"/>
<path transform="translate(483,787)" d="m0 0h16l10 4 13 8 20 9 8-1 12-3 5-1h22l12 3v1h-12l-5-1h-16l-19 4-2 1h-7l-10-3-1-3-9-2v-2l-5-1-4-1v-3l-9-1-2 1-3-3 1 5 2 6 4 1 8 4 5 4 5 5-4 2-7 2-29 9-22 5-14 1-1-4 3-1v-2l7-5 1-2 3-1 1-3h3l1-4 10-8 3-3 15-6h3l-1-4-2-1-13 1-6 2-8 5-7 8h-2l-2 4-4 5-14 8-7 3h-11l-12-6-10-8-1-2 4 2 9 6 9 4 10 1 12-5 10-7 9-10 10-11 11-5z" fill="#F79C47"/>
<path transform="translate(1051,569)" d="m0 0h6v2l-11 7-6 7-5 12-1 5v13l3 11 5 10 5 6 10 6 6 2 8 1 11-2 10-5 8-8 7-13 2-9v-10l-4-13-6-9-2-2-2-7 7 1 3 2v2h2l7 9 3 9 1 8v16l-3 12-4 8-8 7-10 8-10 3-9 2h-13l-12-3-10-9-6-7-5-9-4-14v-18l4-11 6-9h2l2-4 6-3 5-2z" fill="#FDF7E6"/>
<path transform="translate(66,724)" d="m0 0h12l1 4v2l-2 1v4l-3 1-1 3-2 4 2 1-2 4-5 2v6l3 1 1 6 5-1 2 5h2l4 4 4 1v2l4 2v2l3 1v2h-2v3l-6 3-7 3-4 1-4-1v-2h-3l-3-3-5 5-3 5-3-3-1-6h-3v-2h-2l-1-5 2 2 1-2-3-2 4-11-3-1 2-7-1-3h-2l-2 4 1 2-4-2v-2h-2l-1 21v8l-2-1-1-4v-19l5-16 6-8 9-9z" fill="#A91322"/>
<path transform="translate(782,686)" d="m0 0 10 2 7 4 4 4 7 14 3 7 2 1 6 16 2 2v4h2l2 6-1 2-7-2-12-2-11-3-9-6v-2l-4-1-2-1v-3h-2l-6-9-2-5v-11l3-11 4-5z" fill="#A91322"/>
<path transform="translate(655,748)" d="m0 0 4 1 7 7 7 12 4 14v14l-3 11-5 10-11 12-8 8-8 6-4-1-1-3v-8l-2-1 1-9 4-10 1-1h5l4-4 3-1-1-3v-9l3-5v-7l2-2v-17l-3-8-2-2z" fill="#AA1422"/>
<path transform="translate(803,774)" d="m0 0 8 1 6 4 10 4 6 1 10 4 6 1h50l9 3v2l-12 3-30 2-16 4-9 2-3 1-1 8 2 13v7l-4 5h-2l-2-3v-4h-2l-3-16-4-7-2-12-7 1-3 6-4 2-2-2-1-14v-7l-1-1v-7z" fill="#FFF8E0"/>
<path transform="translate(1207,339)" d="m0 0 10 2-3 10-4 7-2 12v14l5 10 3 9v2h2l2 9 2 3v3h2l7 8 1 3 4 2 3 3v2l4 2 11 6 14 6 6 2h14l10-2 13-4 7-3h5l-1 4-7 5h-2l-1 3-15 3h-18l-17-4-16-8-11-8-8-7-7-8-7-10-7-12-5-15-2-14v-16l4-14z" fill="#0A1427"/>
<path transform="translate(359,816)" d="m0 0h10l8 3 14 9 11 8 2 1v2l-2 1-34 2h-17l-31-2v-3l12-5 18-12z" fill="#CA1A21"/>
<path transform="translate(1454,602)" d="m0 0 7 1-3 6-7 10-6 8-1 3h-2l-1 4-4 7-3 1-1 5-6 9-2 4h-2l-2 4-3 3-2 5-8 11-6 9-1 3h-2l-2 6-3 5-3 11-3 27-3 16-4 12-4 9-5 8h-2l1 3-6 6h-2v2h-3l-2 4-10 6-7 1v2l-12 1-16-3-12-7-6-9-1-8 4-3 10-4h2l1-2 9-3 5-3 4-5 3-1v-10l-4-6-5-4-8-2h-14l-1 1h-8l-1-1v-13l2-3v13h24l9 3 4 3v2h2l3 6v7l-3 7-5 5-5 4-11 5-12 4-1 3 2 7 5 4 1 2 10 5 11 2 15-2 7-3h3v-2l5-3h2v-2h2l1-3 5-5 4-6 5-8 5-12 4-17 2-23 4-18 4-9 5-7 3-6 5-6 4-7 7-10 16-24 6-8 1-3h2l2-5 7-10v-4h-4v2l-11 3-7 3-10 4-14 5-40 20-4 1 4-4 9-5 22-11h4l1-2 9-4 14-6 16-6 10-3z" fill="#C71920"/>
<path transform="translate(244,800)" d="m0 0h6l7 5 17 17 7 8 3 3v2l-8-1-19-3-33-9-16-5-4-2 1-2 15-3 14-6z" fill="#CA1A21"/>
<path transform="translate(1573,774)" d="m0 0h22l-1 6-3 1v2h-2l2 3-1 9-5 3h-13l-1 3 2 2-1 2 5 2 2 5-6-4-13-11-12-9-10-8-1-3 2-1z" fill="#C81B21"/>
<path transform="translate(113,729)" d="m0 0 7 1 27 9 19 7 21 7 14 4 25 5 5 2 18 3 7 2 29 4 25 4 28 2 27 1h17l49-2 21-2 16-2 19-3 10-2 29-6 32-8 7-2 15-4 24-6 1 2-24 7-26 8-27 7-37 7-28 4-29 3-27 1h-57l-24-1-38-4-47-8-39-9-26-8-63-22z" fill="#F79C47"/>
<path transform="translate(488,804)" d="m0 0h8l14 7 8 6-3 3-25 7-21 6-10 2h-8l2-4 13-13 13-10 5-3z" fill="#CA1A21"/>
<path transform="translate(1143,1439)" d="m0 0 1 3-8 24-4 8-4 10-3 6-3 8-2 13h-2v11l-4 1v-3h-3l-1 7h-4v2h-2l-1 2-1-3-9 2-5 4h-2v2l-5 1v3l-7 4-8 6-14 10-14 9-4 1v2l-9 4-21 9-22 8-15 4-4-1 29-9 13-5 15-7 11-6 14-9 7-4 4-2v-2l5-2 4-5 5-3 15-11 5-6 5-4h2l2-4h2l2-4h2l2-4 6-8 7-10 8-16 10-22 4-12z" fill="#C61820"/>
<path transform="translate(766,510)" d="m0 0 9 2 18 8 8 4 11 4 20 18 2 1v2l3 1 7 10 8 16-1 3-8-16-7-9-9-9-13-10-13-8-11-5h-5l-12 9-5 6-7 10-9 17-5 17-1 5v12l3 14 4 10 7 12 11 12 11 8 8 4 7 2h13l9-2-4 3-9 2-11-1-11-4-10-7-10-9-7-8-8-14-4-11-2-14v-8l3-14 8-19 6-12 2-2 1-5-2-8 1-12 2-4z" fill="#FCBD73"/>
<path transform="translate(861,826)" d="m0 0 5 5 10 16 6 3 9-1 9-7 5-6h5l1 1-1 8-2 4-2 1-3 7-5 8-5 3h-10l-8-4-5-5-4-8v-2h-2l-3-6v-2h-2l-3-9 1-4z" fill="#FEFAEB"/>
<path transform="translate(1716,774)" d="m0 0h25l21 2-1 4-14 15-7 6-6 2-5-2h-4l-1 2v-2l-3-1-1-8h3l1-8h-5l-6-4 1-4z" fill="#C81B21"/>
<path transform="translate(801,557)" d="m0 0h15l12 6 7 6 7 11 3 7 1 13-2 10-6 12-9 10-8 5-6 2h-12l-6-2 3-2 7 1 13-2 8-6 5-5 3-4 1-5v-13l-2-13-5-10-1-3h-2v-2l-5-2-5-3-22-3 1-3 9-3z" fill="#1C1628"/>
<path transform="translate(1087,542)" d="m0 0 6 1 6 3 7 8 8 11-1 3-9-2-8-3-11-4h-20l-19 6-9 3 2-5 8-5 7-4 7-3 17-6z" fill="#FEF2DE"/>
<path transform="translate(662,1486)" d="m0 0 2 3 1 3 4 2 2 5 4 2 9 11 2 4 4 2 8 8v2l5 2 15 15 2 1v2l5 2v2h4v2l4 2 7 5 3 1v2l5 2 2 2 5 2 8 4v2l4 1 15 6 12 5 6 2 19 6 16 4v1l-13-1-24-7-13-4-15-7-11-5-5-3-4-1-4-4-4-2-9-6-9-7-5-3-1-2-3-1-6-7-7-5-5-6-3-2v-2h-2l-5-5-5-4-2-3-9-4-3 1-2-1-4-18z" fill="#C61920"/>
<path transform="translate(171,779)" d="m0 0h7l8 6 8 7 5 2h15l10-4 15-7 10-2 12 4 7 6 9 11 9 10 10 8 7 3h15l12-5 9-7 2 1-7 6-6 4-6 3-13 2-13-4-11-8v-2l-4-2v-2h-2v-2h-2l-8-10v-2h-2v-2h-2v-2l-4-2-5-2-8-1-15 5h-3v2l-5 2h-3v2l-12 3-12-1-3-1v-2l-5-2-7-6v-2l-9-1-3 3v6h2l1 6 6 5v2l-10-1-5-2 3-1 4 1-5-12v-8l2-4z" fill="#F79C47"/>
<path transform="translate(1360,1415)" d="m0 0 9 3 15 8 5 3v2l-27 13-3-1-1-6-6-2-4-6 1-7h3v-2l3-1 2-3z" fill="#C71A21"/>
<path transform="translate(752,573)" d="m0 0h1v12h4 4l2 18 5 15h2l3 5 7 8 4 15 5 6-4-1-8-6-1-4h-2l-5-12-8-7-4-7-4-11-4-9v-12z" fill="#FFF8E0"/>
<path transform="translate(980,826)" d="m0 0h6l-1 6-2 9-9 16-11 12-7 4-4 1h-12l-3-3 4 1h10l8-2 2-4 6-6v-5l-5 1-10 6-6-1-5-4-7-11-5-2-1 5-2-2v-5l3-4 4 1 4 5 6 10 2 2 9-1 5-3h2v-2l5-5 6-10z" fill="#FEF7DF"/>
<path transform="translate(69,839)" d="m0 0h13l12 3 15 5 8 3 11 5 34 13 19 7 28 8 22 5 9 2 14 2 12 3 19 2 8 3v1l-16-1-34-6-36-8-27-8-22-8-16-6-7-3-10-3-11-5-16-6-14-4-13-1-5 2 1-4z" fill="#FEB663"/>
<path transform="translate(929,844)" d="m0 0 5 1 7 10 5 5 6 1 12-7 4 1v5l-11 11-6 2h-10l-6-3-6-9-1-8v-7z" fill="#FEF9EA"/>
<path transform="translate(1321,234)" d="m0 0 2 1-3 6v11l-2 2-3 9-6 8-5 9-4 4-2 4-11 13-14 16-13 6-4 2-4 4-6 2-6 1-1 2-3-1 3-3 18-10 13-9 14-12 9-11 9-14 8-16 8-22z" fill="#151628"/>
<path transform="translate(777,592)" d="m0 0 4 2 3 13 4 7 3 3v2h2v2h2l3 5 8 4 3 1h8l10-5 6-5 4-4v4l-6 5h-2l-1 3-8 6-13 2-12-1-10-8-4-8-4-10-2-14z" fill="#0C1426"/>
<path transform="translate(757,505)" d="m0 0 6 6-4 11v15l-2 9h-2l-1 7h-2l-2 9-6 14-3 11-1-3v-12l-2-6h5l4-23 6-25z" fill="#C61C22"/>
<path transform="translate(1202,336)" d="m0 0 5 2-2 4-4 11-1 5v16l2 14 6 17 10 16 9 10v2l4 2 10 9 14 8 10 4 14 3h18l9-2h6v2l-7 3-5 1h-19l-14-3-18-7-12-9-10-9-8-8-11-15-5-11-4-12-2-12v-22l1-9h2l1-9z" fill="#AF1421"/>
<path transform="translate(803,776)" d="m0 0h7l7 9h7l9 3 11 3 2 4-5 1-3-1h-17l-7 2-5 8h-4l-1-1-1-14z" fill="#FEFAEB"/>
<path transform="translate(1137,535)" d="m0 0 4 2 5 2 1 5-2 7-4 1-4 2-2-3-3 6 1 4 10 15 2 6h-2l-9-14-11-13-12-11-9-7h3l7 4 1 3 5 2h6l3 1 3-5v-3-3z" fill="#C81920"/>
<path transform="translate(1136,1013)" d="m0 0 3 1-11 7-8 3-13 6-11 4-8 3-13 4h-4l-1 2v-2l-12 4-13 2-21 1h-9l-3 1-1-1-23-1-17-2-7-2-12-2-5-3-14-5-6-3 2-1 30 10 23 4 4 1 29 1 26-1 28-5 18-5 18-6 7-3 6-3 7-2v-2l7-3z" fill="#C71920"/>
<path transform="translate(243,795)" d="m0 0 9 1 6 5v2l5 2 3 4v2h2v2l3 1v2l3 1 6 9 7 6 4 1 1 4h-9l-4-2h5l-7-8-12-13-8-7v-2l-4-2-3-2-10 1-15 7-13 4-7 1 3 2 5 2-4 1-18-6-1-3 1-1h20l13-4 11-6 4-2h4z" fill="#F79C47"/>
<path transform="translate(1065,782)" d="m0 0 9 2 5 3h5l4-1 2 5-3 18-3 5h-2v-2h-2l-6-8-5-6v-6h-2l-1-5h-2z" fill="#FDF8E7"/>
<path transform="translate(1108,974)" d="m0 0h6l-2 2-15 5-13 4-23 5-2 1-9 1-2 1-31 3-14 1h-37l-23-3-23-5-10-3v-1h7l9 3 23 4 26 2h32l25-2 18-3 13-2 6-2 7-1 9-3 18-5z" fill="#C71920"/>
<path transform="translate(347,806)" d="m0 0 4 1v8l-5 5h-2l-2 4-4 5-10 4-4 2h-9l-5-2 1-4 7-2 4-1v-2l9-5 9-7z" fill="#FDBD73"/>
<path transform="translate(1555,1416)" d="m0 0h2l1 4h2v5h-2l1 7-3 1 3 3-5 4h-2l3 5-3 4 1 2h-2l-1 8-2 1-1 3-5 1-4-4v-4l9-20 5-14 2-4z" fill="#E5292B"/>
<path transform="translate(497,793)" d="m0 0 4 2 2-1 8 2v3l7 1 2 1v2l7 1 4 3 9 3 7 1-1 2h-20v3h-2l-1 3-2-1-4-4-6-5-7-3-4-2-1-5-2-1-1-3z" fill="#FDB562"/>
<path transform="translate(816,391)" d="m0 0h3l-2 4-7 9h-2l-2 4-10 13-3 2-7-7-9-13v-2l6 1v2l5 2h5l3-2h3v-2l6-2 1-3 4-3h4v-2z" fill="#0C1527"/>
<path transform="translate(888,335)" d="m0 0 4 2-14 10-12 7-12 9-5 5-6 5h-2v2l-8 7-8 8-7 8-10 11-2 3h-2l-2 5-5 7h-3l2-4 12-16h2l2-4 9-10 7-8 11-11 11-9 8-7 19-13z" fill="#B01421"/>
<path transform="translate(1315,462)" d="m0 0 4 4 3 7h-2l4 9v3 8l-1 1v7l-4 4-1 3h-2l-2 12-2 10-3 7-1-3 6-26v-8l1-8-1-5v-9l-1-4z" fill="#C61920"/>
<path transform="translate(1011,598)" d="m0 0h4l3 8v14l3 5 3 12v5l-7-3-4-6-4-14-1-10-1-3z" fill="#FEF2DE"/>
<path transform="translate(1355,590)" d="m0 0 4 1v2l-5 2h-4v2l-5 2h-3v2l-8 1v3l-7 2-9 6-7 3-12 7-4 3h-2l-1 3h-3l-2 4-6 5h-3l-1 4h-5l-1 3-2-3 3-9 9-20 2-5 1 3-9 23 1 3 14-12 13-8 6-4 11-6 13-6 17-8z" fill="#C71920"/>
<path transform="translate(861,826)" d="m0 0 5 5 10 16 6 3 9-1 9-7 5-6h5l1 1-1 8-3 4-1-3-4 1-7 6-2 1h-11l-10-6-5-8-2-4-3-1-2 6-2-2-2-10z" fill="#FFF8E0"/>
<path transform="translate(1111,1901)" d="m0 0h2v2l5 2 4-2 4 5 2-1 2 1 10 1v1h-122v-1l70-1 4-5h18z" fill="#C71920"/>
<path transform="translate(361,813)" d="m0 0 8 1 14 6 11 8 8 6 5 5-3 2-23 2h-35l-28-2-3-1 1-3 16-7 4-1-4 4-12 5v1l31 2h17l36-2v-2l-5-2-15-11-11-6-4-1h-10l-9 4-9 6-2-1 5-5 7-4z" fill="#F79C47"/>
<path transform="translate(957,1597)" d="m0 0h6l-3 2-18 4-27 4-21 1h-22l-24-3-13-3v-1h8l16 3h41l19-1 16-2 11-1z" fill="#C71920"/>
<path transform="translate(1181,1150)" d="m0 0 4 1v2h2l7 8 31 31-1 2-40-40h-2v38l-1 34-3 37-1 8h-1v-14l1-17 1-13 1-27 1-35v-13z" fill="#C71920"/>
<path transform="translate(1383,1465)" d="m0 0h9l14 4v3l-10 7-9 1-3-2-5-1-1-4h3l-1-7 3 1z" fill="#CC2225"/>
<path transform="translate(1e3 579)" d="m0 0 1 2-2 10v7l-2 6v10l-1 5v8l4 12 3 5-1 3-8-15-4-13v-15l4-13z" fill="#FDE7C8"/>
<path transform="translate(1e3 578)" d="m0 0 1 2-7 16-2 8v15l5 15 7 13 5 6 10 8 5 3-1 2-11-7-10-10-7-10-2-1-1-5-3-1 1-1v-6l-2-2-1-8v-10l7-18z" fill="#D01D23"/>
<path transform="translate(1129,608)" d="m0 0 3 1 1 9-1 10-2 4-5 5-6 5h-2l2-9 5-18 2-3h2z" fill="#FEF2DE"/>
<path transform="translate(756,552)" d="m0 0 1 2-6 13-5 19v12l3 14 4 10 7 12 11 12 11 8 8 4 7 2h13l9-2-4 3-9 2-11-1-11-4-10-7-10-9-7-8-8-14-4-11-2-14v-8l3-14 8-19z" fill="#FDBF76"/>
<path transform="translate(1321,234)" d="m0 0 2 1-3 6v11l-2 2-3 9-6 8-5 9-7 4 2-5 8-14 9-24 3-6z" fill="#181A2A"/>
<path transform="translate(1307,1076)" d="m0 0 4 1 34 34 7 8 10 10 7 8-4 2-2-3v-2l-8-7v-3h-2l-14-14-2-1v-2h-2v-2h-2l-7-8-10-10v-2l-4-2v-2l-2-1z" fill="#CB2828"/>
<path transform="translate(1360,645)" d="m0 0 3 1-5 4-7 4-12 8-14 12-5 4-7 8-7 10-7 14-3 9h-1l1-7 5-14 9-14 12-12 3-1v-2l5-3h2l2-4 11-8 14-8z" fill="#C71920"/>
<path transform="translate(1e3 827)" d="m0 0 5 1 3 2v2l10 1 3-1 3-4-1 6-4 8-5 3h-3l-2-3-3-1-3-6-2-1z" fill="#FEF7DF"/>
<path transform="translate(1630,893)" d="m0 0h4l1 3-3 11h3l-1 6-10 11h-2l1-4 2-1 1-10-3-3 3-9z" fill="#CB1E23"/>
<path transform="translate(790,520)" d="m0 0 6 1 5 3 11 4 20 18 2 1v2l3 1 7 10 8 16-1 3-8-16-7-9-9-9-13-10-13-8-11-5z" fill="#FBB568"/>
<path transform="translate(809,1399)" d="m0 0 10 2 10 6 10 9 2 2-1 3-7-8-9-6-10-4h-12l-9 4-7 5h-2l-7 14-2 7-1 11h-1v-16l6-12 4-5 9-7 5-3z" fill="#C71920"/>
<path transform="translate(1481,1087)" d="m0 0 2 3 9 25 4 10-4-2-3-3v-2l-3-1-2-4v-7h-3l-1-4h2l-4-5 1-2-2-1 3-1v-5z" fill="#E52C2D"/>
<path transform="translate(1106,738)" d="m0 0h2l-1 9-2 7-5 2-1 4-4 1-4-8h2l2-5 9-9z" fill="#FEF9EA"/>
<path transform="translate(806,552)" d="m0 0 12 3 7 3v3l-9-3h-15l-9 4-8 6-4 6-3-1 2-4 10-10 1-2 8-3z" fill="#FDE4C2"/>
<path transform="translate(568,805)" d="m0 0h16l17 2 12 6 4 4-5-1-5-3-19-4-17-1-12 2-12 1 2-2z" fill="#FEB663"/>
<path transform="translate(1195,974)" d="m0 0 2 2h-3l-1 4-3 3-9 4-6 4h-2v2l-11 7-6 5h-3v2l-8 4h-2v2l-4-1 4-3 5-3 9-6 10-7 6-4 20-14z" fill="#C71920"/>
<path transform="translate(992,824)" d="m0 0 5 1 2 5-1 7-4-1-5 2-2 4-5 4 1-7 6-11z" fill="#C91A22"/>
<path transform="translate(797,766)" d="m0 0 7 1 18 8 5 4-5-1-17-8-6-1 1 21 3 16 2 5h3l4-7 1 2-5 8-4-1-3-4-3-14-1-8z" fill="#FCBB71"/>
<path transform="translate(1167,759)" d="m0 0 1 3-6 8-7 7h-4v2l-12 2-13-4-10-7-3-6v-3h2l2 6 6 5 8 4 9 1 9-1 8-5 3-1 2-4z" fill="#C71920"/>
<path transform="translate(982,837)" d="m0 0h2l-2 6-8 14-11 12-7 4-4 1h-12l-3-3 4 1h10l8-2 2-4 8-9 7-11z" fill="#FDD4A2"/>
<path transform="translate(1518,1177)" d="m0 0 5 1 10 20-3 1v2l2 1-2 2v-2h-2v-4h-2l-6-10-1-6-2-4z" fill="#E22A2B"/>
<path transform="translate(1105,753)" d="m0 0 1 4-1 8h-2l-1 11-3 8-3 9-5 10-1-3 6-18 7-25z" fill="#CE1C22"/>
<path transform="translate(1e3 578)" d="m0 0 1 2-7 16-2 8v22l-4-3-1-8v-10l7-18z" fill="#CD1B22"/>
<path transform="translate(845,1448)" d="m0 0 1 4-3 8h-2l-2 4-8 8-7 4-6 2-10 1-12-2-1-2-8-4v-2l5 2 5 3 8 2h10l11-4 9-7 6-8z" fill="#C71920"/>
<path transform="translate(569,1223)" d="m0 0h38l2 2-13 2h-20l-7-3z" fill="#C81F24"/>
<path transform="translate(1086,530)" d="m0 0 8 1 14 10 14 12 6 6v2l-4-2v-2l-3-1v-2l-4-1v-2l-4-2-8-7-7-4v-2l-9-3-8 1-7 1 3-2z" fill="#FDDDB4"/>
<path transform="translate(838,617)" d="m0 0h2l-2 5-9 10-8 5-6 2h-12l-6-2 3-2 7 1 13-2 8-6 5-5z" fill="#5D1E32"/>
<path transform="translate(928,856)" d="m0 0 3 1 3 5 2 4 5 2 5 1 13-1v2l-8 3h-10l-6-3-6-9zm32 9 2 1-3 2z" fill="#FDEED7"/>
<path transform="translate(1202,336)" d="m0 0 5 2-2 4-4 11-1 5-1 16-2-1v-18l1-9h2l1-9z" fill="#AB1321"/>
<path transform="translate(1450,1282)" d="m0 0 2 1-1 7-5 12-6 11-2 3h-2l1-7 6-7 2-10 2-4z" fill="#CE2225"/>
<path transform="translate(753,330)" d="m0 0 2 2 2 6v8l2 5v8l-2 2-3-9-2-9v-11z" fill="#161729"/>
<path transform="translate(52,808)" d="m0 0 8 1 8 4v2h2l-2 4-4 2-12-11z" fill="#AE1724"/>
<path transform="translate(1726,805)" d="m0 0h5l1 4-7 7-7 6-4 5h-2l2-7 8-7z" fill="#CC2526"/>
<path transform="translate(815,800)" d="m0 0h3l3 10 5 19 7 14 4-1-2 4-4-1-5-9-3-8-2-5-4-21-4 2z" fill="#FCBC72"/>
<path transform="translate(1047,793)" d="m0 0h2l-2 4-8 14-5 10-1-3v-7l11-15h2z" fill="#FCDAB0"/>
<path transform="translate(794,529)" d="m0 0 5 1 6 3v2l4 1 4 4v2l12 6-3 1-15-8-5-5-8-6z" fill="#FFF8E0"/>
<path transform="translate(601,807)" d="m0 0 6 1 11 6 9 9 6 10 3 6-1 2-6-9-4-7-4-5-2-1v-2l-5-2-8-5-5-2z" fill="#F79C47"/>
<path transform="translate(639,509)" d="m0 0 4 1 8 5-1 10-3 1z" fill="#CB1D22"/>
<path transform="translate(116,714)" d="m0 0 2 4v11h-8l-4-2h4l2-7z" fill="#FCC079"/>
<path transform="translate(662,808)" d="m0 0 4 2 1 4-3 5h-2l-1 5-1-2h-3l1-7 2-5z" fill="#C71920"/>
<path transform="translate(848,827)" d="m0 0 3 4 2 7-6 2v-3l-4 2-4 6v-3l6-10z" fill="#C71920"/>
<path transform="translate(773,590)" d="m0 0h1v9h2l3 14 5 10-1 3-7-11-3-10z" fill="#582235"/>
<path transform="translate(1487,953)" d="m0 0h2l1 5-2 6-3 3-2 4h-3l1-7z" fill="#E6282B"/>
<path transform="translate(822,638)" d="m0 0h4l-1 6-7 3-4-1-1-4 3-3h5z" fill="#FDFCFB"/>
<path transform="translate(548,1014)" d="m0 0 5 5 10 13 5 7-1 3-4-4 1-2h-2v-2l-3-1-2-5-4-3v-2l-2-1 1-2-4-1-1-3z" fill="#CF2A29"/>
<path transform="translate(1014,655)" d="m0 0 4 1v2l5 2 7 4 6 2 10 4v2l-9-2-16-8-7-6z" fill="#FDDFB9"/>
<path transform="translate(1149,594)" d="m0 0h1l1 7v9l-2 10-7 16-1-4 5-12 2-6z" fill="#CE1C22"/>
<path transform="translate(1425,1204)" d="m0 0 5 5 9 12 3 6-4-2-4-5-2-1-4-7-4-5z" fill="#CC2125"/>
<path transform="translate(595,804)" d="m0 0 10 1 13 7 4 3v2l4 2 4 6-1 2-11-12-14-7-9-3z" fill="#E6282B"/>
<path transform="translate(1197,373)" d="m0 0 3 1 2 14 4 12-1 4-2-3-4-12z" fill="#AF1421"/>
<path transform="translate(38,759)" d="m0 0 2 3-1 16v8l-2-1-1-4v-19z" fill="#B01925"/>
<path transform="translate(1240,1008)" d="m0 0 4 2 8 7 6 6v3l-4-1-6-7-4-4v-2h-2v-2h-2z" fill="#CE2224"/>
<path transform="translate(775,578)" d="m0 0h2l-3 12v15l1 6-2 1-2-9v-12l2-9z" fill="#FDDEB5"/>
<path transform="translate(359,797)" d="m0 0h9l9 3-3 1-4-1h-10l-7 2-10 9-2-1 8-8z" fill="#F79C47"/>
<path transform="translate(766,510)" d="m0 0 6 1v1l-7 2-1 11 1 7 1 3-3 4-1-6-1-8 1-10 2-4z" fill="#F79C47"/>
<path transform="translate(889,1010)" d="m0 0 5 2 11 6 22 10-3 1-26-12-9-6z" fill="#C71920"/>
<path transform="translate(1111,736)" d="m0 0h1v16l1 9-2-4-3-7-1-6h2l1-7z" fill="#C81920"/>
<path transform="translate(825,561)" d="m0 0 5 1 8 7 6 11 1 4h-2l-6-11-6-7-6-4z" fill="#FDE2BD"/>
<path transform="translate(1559,1378)" d="m0 0 1 2 3-1v15l-2 3h-2z" fill="#E6282B"/>
<path transform="translate(1434,1316)" d="m0 0 1 4-7 9-4 2 1-6 4-5 5-1z" fill="#CD2325"/>
<path transform="translate(677,594)" d="m0 0 3 4 4 12 5 14v2h-2l-4-11-6-18z" fill="#CD2124"/>
<path transform="translate(1431,790)" d="m0 0h2l-1 5-6 12-4 4-1-2 1-3h2l1-5 1-3h2v-2h2l-1-3z" fill="#CE2125"/>
<path transform="translate(1693,773)" d="m0 0h20v1l-11 1-2 1-6 1-1-1-7 1h-9l1-2 12-1z" fill="#C11720"/>
<path transform="translate(267,824)" d="m0 0 6 1 5 5v2l-7-1-4-2z" fill="#A91321"/>
<path transform="translate(1109,543)" d="m0 0 4 2 13 12 2 4-4-2v-2l-3-1v-2l-4-1v-2l-4-2-4-4z" fill="#FDE1BB"/>
<path transform="translate(1353,1122)" d="m0 0 4 2 12 13-4 2-2-3v-2l-8-7v-3h-2z" fill="#CD2427"/>
<path transform="translate(1138,721)" d="m0 0h11l9 5 8 8-1 3-7-8-2-1v-2l-5-1-5-2h-9z" fill="#C71920"/>
<path transform="translate(1137,639)" d="m0 0h2l-2 4-7 8-6 6h-2v2l-5 2 1-3 11-9z" fill="#CF1D23"/>
<path transform="translate(853,981)" d="m0 0 2 1 4 4v2l5 2 12 10-2 1-7-5-4-4-8-4v-3h-2l-1-3z" fill="#C61920"/>
<path transform="translate(875,973)" d="m0 0 5 1 11 4 13 4 5 2-3 1-16-5-15-6z" fill="#C71920"/>
<path transform="translate(1e3 647)" d="m0 0 4 2 5 5 8 7 5 3-1 2-11-7-10-10z" fill="#CC1C23"/>
<path transform="translate(1101,660)" d="m0 0h6l-2 4-2 2h-9v-2z" fill="#FEF9EA"/>
<path transform="translate(1202,336)" d="m0 0 5 2-2 4-4 5-2 7h-1v-8h2l1-9z" fill="#B91923"/>
<path transform="translate(1e3 578)" d="m0 0 1 2-7 16-2 4-1-5 4-9z" fill="#CF1D22"/>
<path transform="translate(1368,1140)" d="m0 0 4 1 10 11v3h-2l-4-4v-3l-4-2-4-4z" fill="#C62327"/>
<path transform="translate(888,335)" d="m0 0 4 2-4 3-8 3-5 4-2-1 7-6z" fill="#AE1421"/>
<path transform="translate(1542,891)" d="m0 0 3 2-2 5-2 3-5-1v-4h2v-3z" fill="#E5272A"/>
<path transform="translate(982,837)" d="m0 0h2l-2 6-4 7-4 1 2-5z" fill="#FDE4C2"/>
<path transform="translate(1076,805)" d="m0 0 4 2 3 1 3-3h2l-2 6-2 3h-2v-2h-2z" fill="#FDDAAE"/>
<path transform="translate(1131,965)" d="m0 0 4 1-12 6-5 2-4-1 8-4 5-2z" fill="#C71920"/>
<path transform="translate(1650,891)" d="m0 0v3l-7 8-3-1 3-5 3-4z" fill="#CC2225"/>
<path transform="translate(1013,836)" d="m0 0 6 2-2 4-5 1-2-5z" fill="#FEFAEB"/>
<path transform="translate(1106,738)" d="m0 0h2l-1 9-2 7h-1v-9l1-2-4-2z" fill="#FDDBAF"/>
<path transform="translate(842,582)" d="m0 0 2 2 2 9-1 14-2 3-1-4 1-4v-14z" fill="#87202F"/>
<path transform="translate(126,796)" d="m0 0 15 1 8 2v1h-11l-10-2z" fill="#FEB663"/>
<path transform="translate(1077,768)" d="m0 0h3l1 7-3 1-5-2 2-5z" fill="#FEF2DE"/>
<path transform="translate(996,626)" d="m0 0 3 1 4 12 3 5-1 3-8-15z" fill="#FDDDB4"/>
<path transform="translate(1443,1303)" d="m0 0 1 3-6 10h-2l1-7 5-5z" fill="#CF2728"/>
<path transform="translate(797,766)" d="m0 0h4v2l-2 1v21l-2-3z" fill="#FCBE74"/>
<path transform="translate(799,635)" d="m0 0 8 1h8v3h-12l-6-2z" fill="#3E2137"/>
<path transform="translate(1439,1067)" d="m0 0h2v4l2 1v11l-3-4-1-5z" fill="#CB2225"/>
<path transform="translate(276,828)" d="m0 0 4 1 4 4v2l-8-1-6-1v-1h8z" fill="#D82126"/>
<path transform="translate(1570,836)" d="m0 0 2 1-3 4h-2v2l-3 2-4-1 5-5z" fill="#CD2325"/>
<path transform="translate(536,999)" d="m0 0h2l8 11-1 2-6-5-1-3-2-1z" fill="#CA1E23"/>
<path transform="translate(1419,812)" d="m0 0h2l-1 4-7 9-1-2 4-8z" fill="#CD2325"/>
<path transform="translate(1098,771)" d="m0 0 1 3-5 17-2-4 4-13z" fill="#FDD9AC"/>
<path transform="translate(844,585)" d="m0 0h2l2 9v8l-3 2v-11z" fill="#FDE4C1"/>
<path transform="translate(1046,672)" d="m0 0h16l4 1v2h-9l-11-2z" fill="#FDD3A1"/>
<path transform="translate(815,805)" d="m0 0 2 2v7h-6l2-7z" fill="#C71920"/>
<path transform="translate(1105,753)" d="m0 0 1 4-1 8h-2l-2 5-1-3 4-13z" fill="#D21E24"/>
<path transform="translate(1047,793)" d="m0 0h2l-2 4-5 8-2-3 4-6h2z" fill="#FDD9AD"/>
<path transform="translate(59,757)" d="m0 0 4 1 1 4h-2v2l-5-1 1-3h-2v-2z" fill="#C71920"/>
<path transform="translate(1384,1156)" d="m0 0 7 6 8 9-1 2-14-15z" fill="#C92427"/>
<path transform="translate(559,1029)" d="m0 0 5 5 4 5-1 3-4-4 1-2h-2v-2l-3-1z" fill="#C82427"/>
<path transform="translate(508,964)" d="m0 0h3l4 6-1 2-8-4z" fill="#C91E23"/>
<path transform="translate(1092,791)" d="m0 0 1 4-4 10-2-4 3-7h2z" fill="#FCD09D"/>
<path transform="translate(1374,1576)" d="m0 0 9 1 1 2h-10l-4-2z" fill="#B81C26"/>
<path transform="translate(787,630)" d="m0 0 5 3 8 4-1 2-5-1-7-6z" fill="#FDDEB6"/>
<path transform="translate(1136,569)" d="m0 0 4 2 5 10-2 1-7-11z" fill="#D31F24"/>
<path transform="translate(1404,1575)" d="m0 0h5l2 3-8 1-3-2z" fill="#AB1321"/>
<path transform="translate(455,829)" d="m0 0v3l9 1v1l-5 1h-8l2-4z" fill="#E6282B"/>
<path transform="translate(1537,777)" d="m0 0h7v6l-4-2-3-3z" fill="#AD1B26"/>
<path transform="translate(1602,773)" d="m0 0h10l2 2-7 1-3-1h-8v-1z" fill="#C71920"/>
<path transform="translate(590,726)" d="m0 0 4 2 5 6v2h-2v-2h-2l-5-6z" fill="#FDBA6C"/>
<path transform="translate(826,629)" d="m0 0m-1 1m-1 1m-1 1 3 2-8 4h-3v-2z" fill="#642033"/>
<path transform="translate(775,578)" d="m0 0h2l-3 12h-2v-6z" fill="#FDE1BC"/>
<path transform="translate(639,509)" d="m0 0 4 1 3 2-1 6-3-3z" fill="#C73333"/>
<path transform="translate(1546,1439)" d="m0 0 1 3 1 5 2 1-4 1-3-2 2-6z" fill="#CB2024"/>
<path transform="translate(923,845)" d="m0 0 4 2v2l2 1v5l-2 1-4-9z" fill="#FDDBAF"/>
<path transform="translate(205,813)" d="m0 0h5l-1 3 9 2v1l-8-1-6-3z" fill="#E6282B"/>
<path transform="translate(1056,783)" d="m0 0h4v2l-5 3-6 5 2-4z" fill="#FCD19F"/>
<path transform="translate(1031,772)" d="m0 0h7v2l2 1-8 1z" fill="#FEFAEB"/>
<path transform="translate(763,541)" d="m0 0v3l-5 8h-2l1-4 2-4z" fill="#FCBB70"/>
<path transform="translate(928,856)" d="m0 0 3 1 3 5-1 4-4-5z" fill="#FDDEB6"/>
<path transform="translate(884,340)" d="m0 0 2 1-8 6-6 2 3-3z" fill="#C71920"/>
</svg>
